%FSLAX25Y25*%
%MOIN*%
G70*
G01*
G75*
%ADD10R,0.04016X0.03543*%
%ADD11C,0.02500*%
%ADD12R,0.28500X0.13000*%
%ADD13R,0.23500X0.21500*%
%ADD14R,0.39500X0.21500*%
%ADD15C,0.07500*%
%ADD16R,0.10000X0.05000*%
%ADD17O,0.10000X0.05000*%
%ADD18C,0.01000*%
%ADD19C,0.00700*%
D18*
X233250Y360000D02*
G03*
X238250Y360000I2500J0D01*
G01*
X228000D02*
X233250D01*
X238250D02*
X243500D01*
Y320000D02*
Y360000D01*
X228000Y320000D02*
X243500D01*
X228000D02*
Y360000D01*
D19*
X265000Y335100D02*
Y335900D01*
X261000Y335100D02*
Y335900D01*
X265000Y349100D02*
Y349900D01*
X261000Y349100D02*
Y349900D01*
X254000Y314100D02*
Y314900D01*
X250000Y314100D02*
Y314900D01*
X265000Y321600D02*
Y322400D01*
X261000Y321600D02*
Y322400D01*
X212000Y327100D02*
Y327900D01*
X208000Y327100D02*
Y327900D01*
X244168Y313729D02*
X243501Y313062D01*
Y311729D01*
X244168Y311063D01*
X246834D01*
X247500Y311729D01*
Y313062D01*
X246834Y313729D01*
X247500Y315062D02*
Y316395D01*
Y315728D01*
X243501D01*
X244168Y315062D01*
X267668Y321666D02*
X267001Y320999D01*
Y319666D01*
X267668Y319000D01*
X270334D01*
X271000Y319666D01*
Y320999D01*
X270334Y321666D01*
X271000Y325664D02*
Y322999D01*
X268334Y325664D01*
X267668D01*
X267001Y324998D01*
Y323665D01*
X267668Y322999D01*
X236166Y363666D02*
Y366332D01*
X235499Y366999D01*
X234166D01*
X233500Y366332D01*
Y363666D01*
X234166Y363000D01*
X235499D01*
X234833Y364333D02*
X236166Y363000D01*
X235499D02*
X236166Y363666D01*
X237499Y363000D02*
X238832D01*
X238165D01*
Y366999D01*
X237499Y366332D01*
X271000Y347000D02*
X267001D01*
Y348999D01*
X267668Y349666D01*
X269001D01*
X269667Y348999D01*
Y347000D01*
Y348333D02*
X271000Y349666D01*
Y350999D02*
Y352332D01*
Y351665D01*
X267001D01*
X267668Y350999D01*
X271000Y332000D02*
X267001D01*
Y333999D01*
X267668Y334666D01*
X269001D01*
X269667Y333999D01*
Y332000D01*
Y333333D02*
X271000Y334666D01*
Y338665D02*
Y335999D01*
X268334Y338665D01*
X267668D01*
X267001Y337998D01*
Y336665D01*
X267668Y335999D01*
X212000Y336000D02*
X208001D01*
Y337999D01*
X208668Y338666D01*
X210001D01*
X210667Y337999D01*
Y336000D01*
Y337333D02*
X212000Y338666D01*
X208668Y339999D02*
X208001Y340665D01*
Y341998D01*
X208668Y342665D01*
X209334D01*
X210001Y341998D01*
Y341332D01*
Y341998D01*
X210667Y342665D01*
X211334D01*
X212000Y341998D01*
Y340665D01*
X211334Y339999D01*
X210168Y362666D02*
X209501Y361999D01*
Y360666D01*
X210168Y360000D01*
X212834D01*
X213500Y360666D01*
Y361999D01*
X212834Y362666D01*
X211501D01*
Y361333D01*
X213500Y363999D02*
X209501D01*
X213500Y366665D01*
X209501D01*
Y367997D02*
X213500D01*
Y369997D01*
X212834Y370663D01*
X210168D01*
X209501Y369997D01*
Y367997D01*
X257001Y360000D02*
X259667D01*
X261000Y361333D01*
X259667Y362666D01*
X257001D01*
X258334Y366665D02*
Y364665D01*
X259001Y363999D01*
X260334D01*
X261000Y364665D01*
Y366665D01*
X258334Y370663D02*
Y368664D01*
X259001Y367997D01*
X260334D01*
X261000Y368664D01*
Y370663D01*
X222500Y308000D02*
X218501D01*
Y309999D01*
X219168Y310666D01*
X220501D01*
X221167Y309999D01*
Y308000D01*
X218501Y311999D02*
X222500D01*
X221167Y313332D01*
X222500Y314665D01*
X218501D01*
X222500Y315997D02*
X218501D01*
X219834Y317330D01*
X218501Y318663D01*
X222500D01*
M02*
