%FSLAX25Y25*%
%MOIN*%
G70*
G01*
G75*
G04 Layer_Physical_Order=1*
G04 Layer_Color=255*
%ADD10R,0.04016X0.03543*%
%ADD11C,0.02500*%
%ADD12R,0.28500X0.13000*%
%ADD13R,0.23500X0.21500*%
%ADD14R,0.39500X0.21500*%
%ADD15C,0.07500*%
%ADD16R,0.10000X0.05000*%
%ADD17O,0.10000X0.05000*%
G36*
X272217Y306523D02*
X266048D01*
X265888Y306996D01*
X266236Y307264D01*
X266963Y308212D01*
X267421Y309315D01*
X267511Y310000D01*
X258489D01*
X258579Y309315D01*
X259037Y308212D01*
X259764Y307264D01*
X260112Y306996D01*
X259952Y306523D01*
X237500D01*
Y317500D01*
X247500D01*
Y313000D01*
X249205D01*
Y311063D01*
X254795D01*
Y313000D01*
X255500D01*
X257500Y315000D01*
X259000Y316500D01*
Y321500D01*
X272217D01*
Y306523D01*
D02*
G37*
%LPC*%
G36*
X263500Y315011D02*
Y311000D01*
X267511D01*
X267421Y311684D01*
X266963Y312788D01*
X266236Y313736D01*
X265288Y314463D01*
X264184Y314921D01*
X263500Y315011D01*
D02*
G37*
G36*
X251500Y310063D02*
X249205D01*
Y308004D01*
X251500D01*
Y310063D01*
D02*
G37*
G36*
X254795D02*
X252500D01*
Y308004D01*
X254795D01*
Y310063D01*
D02*
G37*
G36*
X262500Y320622D02*
X260205D01*
Y318563D01*
X262500D01*
Y320622D01*
D02*
G37*
G36*
X265795D02*
X263500D01*
Y318563D01*
X265795D01*
Y320622D01*
D02*
G37*
G36*
X262500Y317563D02*
X260205D01*
Y315504D01*
X262424D01*
X262457Y315005D01*
X261816Y314921D01*
X260712Y314463D01*
X259764Y313736D01*
X259037Y312788D01*
X258579Y311684D01*
X258489Y311000D01*
X262500D01*
Y315011D01*
X263000Y315077D01*
X263000D01*
Y315150D01*
X263353Y315504D01*
X262500D01*
Y317563D01*
D02*
G37*
G36*
X265795D02*
X263500D01*
Y315504D01*
X265795D01*
Y317563D01*
D02*
G37*
%LPD*%
D10*
X263000Y331563D02*
D03*
Y339437D02*
D03*
Y345563D02*
D03*
Y353437D02*
D03*
X252000Y310563D02*
D03*
Y318437D02*
D03*
X263000Y318063D02*
D03*
Y325937D02*
D03*
X210000Y323563D02*
D03*
Y331437D02*
D03*
D11*
X219500Y345000D02*
X226500D01*
X236500Y335000D01*
X252000D01*
X213563D02*
X219500D01*
X210000Y331437D02*
X213563Y335000D01*
X252000Y345000D02*
X252563Y345563D01*
X263000D01*
Y339437D02*
Y345563D01*
X255437Y331563D02*
X263000D01*
X252000Y335000D02*
X255437Y331563D01*
X263000Y325937D02*
Y331563D01*
Y310500D02*
Y318063D01*
Y353437D02*
Y363000D01*
X262500Y363500D02*
X263000Y363000D01*
X253000Y363500D02*
X262500D01*
X252000Y364500D02*
X253000Y363500D01*
X241500Y364500D02*
X252000D01*
X219500Y355000D02*
Y367500D01*
X252000Y318437D02*
Y325000D01*
X210000Y317500D02*
Y323563D01*
Y317500D02*
X214000Y313500D01*
D12*
X220750Y313000D02*
D03*
D13*
X218250Y361250D02*
D03*
D14*
X252250D02*
D03*
D15*
X252000Y364500D02*
D03*
X219500Y367500D02*
D03*
X214000Y313500D02*
D03*
X263000Y310500D02*
D03*
D16*
X219500Y355000D02*
D03*
D17*
Y345000D02*
D03*
Y335000D02*
D03*
Y325000D02*
D03*
X252000Y355000D02*
D03*
Y345000D02*
D03*
Y335000D02*
D03*
Y325000D02*
D03*
M02*
