%FSLAX25Y25*%
%MOIN*%
G70*
G01*
G75*
G04 Layer_Physical_Order=2*
G04 Layer_Color=16711680*
%ADD10R,0.04016X0.03543*%
%ADD11C,0.02500*%
%ADD12R,0.28500X0.13000*%
%ADD13R,0.23500X0.21500*%
%ADD14R,0.39500X0.21500*%
%ADD15C,0.07500*%
%ADD16R,0.10000X0.05000*%
%ADD17O,0.10000X0.05000*%
G36*
X272217Y306523D02*
X263781D01*
X263749Y307022D01*
X264184Y307079D01*
X265288Y307537D01*
X266236Y308264D01*
X266963Y309212D01*
X267421Y310315D01*
X267511Y311000D01*
X258489D01*
X258579Y310315D01*
X259037Y309212D01*
X259764Y308264D01*
X260712Y307537D01*
X261816Y307079D01*
X262251Y307022D01*
X262219Y306523D01*
X206523D01*
Y372217D01*
X217750D01*
X217847Y371727D01*
X217212Y371463D01*
X216264Y370736D01*
X215537Y369788D01*
X215079Y368685D01*
X214989Y368000D01*
X224011D01*
X223921Y368685D01*
X223463Y369788D01*
X222736Y370736D01*
X221788Y371463D01*
X221153Y371727D01*
X221250Y372217D01*
X272217D01*
Y306523D01*
D02*
G37*
%LPC*%
G36*
X254500Y338316D02*
X249500D01*
X248642Y338203D01*
X247842Y337872D01*
X247155Y337345D01*
X246628Y336658D01*
X246297Y335858D01*
X246184Y335000D01*
X246297Y334142D01*
X246628Y333342D01*
X247155Y332655D01*
X247842Y332129D01*
X248642Y331797D01*
X249500Y331684D01*
X254500D01*
X255358Y331797D01*
X256158Y332129D01*
X256845Y332655D01*
X257371Y333342D01*
X257703Y334142D01*
X257816Y335000D01*
X257703Y335858D01*
X257371Y336658D01*
X256845Y337345D01*
X256158Y337872D01*
X255358Y338203D01*
X254500Y338316D01*
D02*
G37*
G36*
X222000Y348316D02*
X217000D01*
X216142Y348203D01*
X215342Y347871D01*
X214655Y347345D01*
X214128Y346658D01*
X213797Y345858D01*
X213684Y345000D01*
X213797Y344142D01*
X214128Y343342D01*
X214655Y342655D01*
X215342Y342128D01*
X216142Y341797D01*
X217000Y341684D01*
X222000D01*
X222858Y341797D01*
X223658Y342128D01*
X224345Y342655D01*
X224871Y343342D01*
X225203Y344142D01*
X225316Y345000D01*
X225203Y345858D01*
X224871Y346658D01*
X224345Y347345D01*
X223658Y347871D01*
X222858Y348203D01*
X222000Y348316D01*
D02*
G37*
G36*
X254500D02*
X249500D01*
X248642Y348203D01*
X247842Y347871D01*
X247155Y347345D01*
X246628Y346658D01*
X246297Y345858D01*
X246184Y345000D01*
X246297Y344142D01*
X246628Y343342D01*
X247155Y342655D01*
X247842Y342128D01*
X248642Y341797D01*
X249500Y341684D01*
X254500D01*
X255358Y341797D01*
X256158Y342128D01*
X256845Y342655D01*
X257371Y343342D01*
X257703Y344142D01*
X257816Y345000D01*
X257703Y345858D01*
X257371Y346658D01*
X256845Y347345D01*
X256158Y347871D01*
X255358Y348203D01*
X254500Y348316D01*
D02*
G37*
G36*
Y328316D02*
X249500D01*
X248642Y328203D01*
X247842Y327871D01*
X247155Y327345D01*
X246628Y326658D01*
X246297Y325858D01*
X246184Y325000D01*
X246297Y324142D01*
X246628Y323342D01*
X247155Y322655D01*
X247842Y322129D01*
X248642Y321797D01*
X249500Y321684D01*
X254500D01*
X255358Y321797D01*
X256158Y322129D01*
X256845Y322655D01*
X257371Y323342D01*
X257703Y324142D01*
X257816Y325000D01*
X257703Y325858D01*
X257371Y326658D01*
X256845Y327345D01*
X256158Y327871D01*
X255358Y328203D01*
X254500Y328316D01*
D02*
G37*
G36*
X214000Y318076D02*
X212815Y317921D01*
X211712Y317463D01*
X210764Y316736D01*
X210037Y315788D01*
X209579Y314685D01*
X209423Y313500D01*
X209579Y312316D01*
X210037Y311212D01*
X210764Y310264D01*
X211712Y309537D01*
X212815Y309079D01*
X214000Y308924D01*
X215184Y309079D01*
X216288Y309537D01*
X217236Y310264D01*
X217963Y311212D01*
X218421Y312316D01*
X218577Y313500D01*
X218421Y314685D01*
X217963Y315788D01*
X217236Y316736D01*
X216288Y317463D01*
X215184Y317921D01*
X214000Y318076D01*
D02*
G37*
G36*
X262500Y316011D02*
X261816Y315921D01*
X260712Y315463D01*
X259764Y314736D01*
X259037Y313788D01*
X258579Y312684D01*
X258489Y312000D01*
X262500D01*
Y316011D01*
D02*
G37*
G36*
X263500D02*
Y312000D01*
X267511D01*
X267421Y312684D01*
X266963Y313788D01*
X266236Y314736D01*
X265288Y315463D01*
X264184Y315921D01*
X263500Y316011D01*
D02*
G37*
G36*
X219000Y354500D02*
X213713D01*
Y351713D01*
X219000D01*
Y354500D01*
D02*
G37*
G36*
X252000Y369076D02*
X250816Y368921D01*
X249712Y368463D01*
X248764Y367736D01*
X248037Y366788D01*
X247579Y365685D01*
X247424Y364500D01*
X247579Y363316D01*
X248037Y362212D01*
X248764Y361264D01*
X249712Y360537D01*
X250816Y360079D01*
X252000Y359924D01*
X253185Y360079D01*
X254288Y360537D01*
X255236Y361264D01*
X255963Y362212D01*
X256421Y363316D01*
X256576Y364500D01*
X256421Y365685D01*
X255963Y366788D01*
X255236Y367736D01*
X254288Y368463D01*
X253185Y368921D01*
X252000Y369076D01*
D02*
G37*
G36*
X219000Y367000D02*
X214989D01*
X215079Y366316D01*
X215537Y365212D01*
X216264Y364264D01*
X217212Y363537D01*
X218316Y363079D01*
X219000Y362989D01*
Y367000D01*
D02*
G37*
G36*
X224011D02*
X220000D01*
Y362989D01*
X220685Y363079D01*
X221788Y363537D01*
X222736Y364264D01*
X223463Y365212D01*
X223921Y366316D01*
X224011Y367000D01*
D02*
G37*
G36*
X254500Y358316D02*
X249500D01*
X248642Y358203D01*
X247842Y357872D01*
X247155Y357345D01*
X246950Y357077D01*
X242500D01*
X242500Y357077D01*
X241705Y356919D01*
X241031Y356469D01*
X236031Y351469D01*
X235581Y350795D01*
X235423Y350000D01*
Y343860D01*
X225677Y334115D01*
X225228Y334336D01*
X225316Y335000D01*
X225203Y335858D01*
X224871Y336658D01*
X224345Y337345D01*
X223658Y337872D01*
X222858Y338203D01*
X222000Y338316D01*
X217000D01*
X216142Y338203D01*
X215342Y337872D01*
X214655Y337345D01*
X214128Y336658D01*
X213797Y335858D01*
X213684Y335000D01*
X213797Y334142D01*
X214128Y333342D01*
X214655Y332655D01*
X215342Y332129D01*
X216142Y331797D01*
X217000Y331684D01*
X222000D01*
X222664Y331772D01*
X222885Y331323D01*
X219878Y328316D01*
X217000D01*
X216142Y328203D01*
X215342Y327871D01*
X214655Y327345D01*
X214128Y326658D01*
X213797Y325858D01*
X213684Y325000D01*
X213797Y324142D01*
X214128Y323342D01*
X214655Y322655D01*
X215342Y322129D01*
X216142Y321797D01*
X217000Y321684D01*
X222000D01*
X222858Y321797D01*
X223658Y322129D01*
X224345Y322655D01*
X224871Y323342D01*
X225203Y324142D01*
X225316Y325000D01*
X225203Y325858D01*
X224871Y326658D01*
X224535Y327097D01*
X238969Y341531D01*
X238969Y341531D01*
X239419Y342205D01*
X239577Y343000D01*
Y349139D01*
X243360Y352923D01*
X246950D01*
X247155Y352655D01*
X247842Y352129D01*
X248642Y351797D01*
X249500Y351684D01*
X254500D01*
X255358Y351797D01*
X256158Y352129D01*
X256845Y352655D01*
X257371Y353342D01*
X257703Y354142D01*
X257816Y355000D01*
X257703Y355858D01*
X257371Y356658D01*
X256845Y357345D01*
X256158Y357872D01*
X255358Y358203D01*
X254500Y358316D01*
D02*
G37*
G36*
X225287Y354500D02*
X220000D01*
Y351713D01*
X225287D01*
Y354500D01*
D02*
G37*
G36*
X219000Y358287D02*
X213713D01*
Y355500D01*
X219000D01*
Y358287D01*
D02*
G37*
G36*
X225287D02*
X220000D01*
Y355500D01*
X225287D01*
Y358287D01*
D02*
G37*
%LPD*%
D11*
X219500Y325000D02*
X237500Y343000D01*
Y350000D01*
X242500Y355000D01*
X252000D01*
D15*
Y364500D02*
D03*
X219500Y367500D02*
D03*
X214000Y313500D02*
D03*
X263000Y310500D02*
D03*
D16*
X219500Y355000D02*
D03*
D17*
Y345000D02*
D03*
Y335000D02*
D03*
Y325000D02*
D03*
X252000Y355000D02*
D03*
Y345000D02*
D03*
Y335000D02*
D03*
Y325000D02*
D03*
M02*
