%FSLAX25Y25*%
%MOIN*%
G70*
G01*
G75*
G04 Layer_Color=16711935*
%ADD10R,0.04016X0.03543*%
%ADD11C,0.02500*%
%ADD12R,0.28500X0.13000*%
%ADD13R,0.23500X0.21500*%
%ADD14R,0.39500X0.21500*%
%ADD15C,0.07500*%
%ADD16R,0.10000X0.05000*%
%ADD17O,0.10000X0.05000*%
%ADD18C,0.01000*%
%ADD19C,0.00700*%
%ADD20R,0.04816X0.04343*%
%ADD21C,0.08300*%
%ADD22R,0.10800X0.05800*%
%ADD23O,0.10800X0.05800*%
%ADD24C,0.00600*%
D18*
X273622Y272000D02*
Y303528D01*
X205118Y272000D02*
Y303528D01*
X265862Y273000D02*
X273622D01*
X205118D02*
X209679D01*
X267622Y275000D02*
X273622Y273000D01*
X267622Y271000D02*
X273622Y273000D01*
X205118D02*
X211118Y271000D01*
X205118Y273000D02*
X211118Y275000D01*
X159000Y373622D02*
X203528D01*
X159000Y305118D02*
X203528D01*
X160000Y365862D02*
Y373622D01*
Y305118D02*
Y309679D01*
X158000Y367622D02*
X160000Y373622D01*
X162000Y367622D01*
X160000Y305118D02*
X162000Y311118D01*
X158000D02*
X160000Y305118D01*
D24*
X211279Y269401D02*
X213278D01*
X212278D01*
Y275399D01*
X211279Y274399D01*
X216277Y275399D02*
X220276D01*
Y274399D01*
X216277Y270401D01*
Y269401D01*
X222275D02*
Y270401D01*
X223275D01*
Y269401D01*
X222275D01*
X230273D02*
Y275399D01*
X227274Y272400D01*
X231272D01*
X233272Y274399D02*
X234271Y275399D01*
X236271D01*
X237270Y274399D01*
Y270401D01*
X236271Y269401D01*
X234271D01*
X233272Y270401D01*
Y274399D01*
X247267Y269401D02*
X245268Y271400D01*
Y273400D01*
X247267Y275399D01*
X250266Y269401D02*
Y273400D01*
X251266D01*
X252265Y272400D01*
Y269401D01*
Y272400D01*
X253265Y273400D01*
X254265Y272400D01*
Y269401D01*
X256264D02*
Y273400D01*
X257264D01*
X258263Y272400D01*
Y269401D01*
Y272400D01*
X259263Y273400D01*
X260263Y272400D01*
Y269401D01*
X262262D02*
X264262Y271400D01*
Y273400D01*
X262262Y275399D01*
X163599Y311279D02*
Y313278D01*
Y312278D01*
X157601D01*
X158601Y311279D01*
X157601Y316277D02*
Y320276D01*
X158601D01*
X162599Y316277D01*
X163599D01*
Y322275D02*
X162599D01*
Y323275D01*
X163599D01*
Y322275D01*
Y330273D02*
X157601D01*
X160600Y327274D01*
Y331272D01*
X158601Y333272D02*
X157601Y334271D01*
Y336271D01*
X158601Y337270D01*
X162599D01*
X163599Y336271D01*
Y334271D01*
X162599Y333272D01*
X158601D01*
X163599Y347267D02*
X161600Y345268D01*
X159600D01*
X157601Y347267D01*
X163599Y350266D02*
X159600D01*
Y351266D01*
X160600Y352265D01*
X163599D01*
X160600D01*
X159600Y353265D01*
X160600Y354265D01*
X163599D01*
Y356264D02*
X159600D01*
Y357264D01*
X160600Y358263D01*
X163599D01*
X160600D01*
X159600Y359263D01*
X160600Y360263D01*
X163599D01*
Y362262D02*
X161600Y364262D01*
X159600D01*
X157601Y362262D01*
M02*
