%FSAX24Y24*%
%MOIN*%
G70*
G01*
G75*
G04 Layer_Color=8421504*
%ADD10R,0.0354X0.0402*%
%ADD11R,0.0701X0.0165*%
%ADD12O,0.0701X0.0165*%
%ADD13R,0.1063X0.0669*%
%ADD14R,0.0402X0.0354*%
%ADD15R,0.0551X0.1102*%
%ADD16R,0.0551X0.0433*%
%ADD17R,0.2205X0.1181*%
%ADD18C,0.0150*%
%ADD19C,0.0500*%
%ADD20C,0.0450*%
%ADD21C,0.0350*%
%ADD22C,0.0100*%
%ADD23C,0.0250*%
%ADD24R,0.0800X0.0360*%
%ADD25R,0.0430X0.0410*%
%ADD26R,0.0600X0.0330*%
%ADD27R,0.1690X0.0060*%
%ADD28R,0.1490X0.0160*%
%ADD29R,0.0050X0.0230*%
%ADD30R,0.0090X0.0320*%
%ADD31R,0.0070X0.0240*%
%ADD32R,0.0060X0.0330*%
%ADD33R,0.0050X0.0350*%
%ADD34R,0.0100X0.0450*%
%ADD35R,0.0100X0.0300*%
%ADD36R,0.0150X0.0450*%
%ADD37R,0.1250X0.0550*%
%ADD38R,0.2250X0.0650*%
%ADD39R,0.1450X0.1700*%
%ADD40R,0.1750X0.1150*%
%ADD41R,0.1690X0.0370*%
%ADD42R,0.0580X0.0310*%
%ADD43R,0.0450X0.0290*%
%ADD44R,0.0320X0.0160*%
%ADD45R,0.1330X0.0770*%
%ADD46R,0.0720X0.0590*%
%ADD47R,0.0750X0.0510*%
%ADD48R,0.0240X0.0210*%
%ADD49R,0.0350X0.0300*%
%ADD50R,0.0420X0.0980*%
%ADD51R,0.1400X0.3700*%
%ADD52R,0.1000X0.0850*%
%ADD53R,0.1600X0.0550*%
%ADD54R,0.1350X0.1100*%
%ADD55R,0.2100X0.0900*%
%ADD56R,0.1250X0.1850*%
%ADD57R,0.1700X0.0800*%
%ADD58R,0.1050X0.1550*%
%ADD59R,0.1700X0.1250*%
%ADD60R,0.1450X0.0550*%
%ADD61R,0.1450X0.2650*%
%ADD62R,0.4000X0.0500*%
%ADD63R,0.4000X0.1498*%
%ADD64R,0.4000X0.1050*%
%ADD65R,0.1200X0.0950*%
%ADD66R,0.0350X0.2500*%
%ADD67R,0.1710X0.2600*%
%ADD68R,0.1150X0.1000*%
%ADD69R,0.1300X0.2600*%
%ADD70R,0.0800X0.1700*%
%ADD71R,0.4000X0.1200*%
%ADD72R,0.3250X0.0900*%
%ADD73R,0.1300X0.0150*%
%ADD74R,0.0400X0.0250*%
%ADD75R,0.1500X0.2500*%
%ADD76C,0.0750*%
%ADD77C,0.0290*%
%ADD78C,0.0079*%
%ADD79C,0.0098*%
%ADD80C,0.0070*%
D10*
X030094Y038850D02*
D03*
X029306D02*
D03*
X030044Y038300D02*
D03*
X029256D02*
D03*
D11*
X027700Y037800D02*
D03*
D12*
Y037544D02*
D03*
Y037288D02*
D03*
Y037032D02*
D03*
Y036776D02*
D03*
Y036520D02*
D03*
Y036265D02*
D03*
X030039Y037800D02*
D03*
Y037544D02*
D03*
Y037288D02*
D03*
Y037032D02*
D03*
Y036776D02*
D03*
Y036520D02*
D03*
Y036265D02*
D03*
D13*
X027550Y040300D02*
D03*
X029150D02*
D03*
X024750Y039850D02*
D03*
X023150D02*
D03*
D14*
X026700Y038094D02*
D03*
Y037306D02*
D03*
X029750Y034844D02*
D03*
Y034056D02*
D03*
X026900Y036094D02*
D03*
Y035306D02*
D03*
X031350Y037794D02*
D03*
Y037006D02*
D03*
D15*
X026550Y033550D02*
D03*
X027950D02*
D03*
D16*
X026050Y036245D02*
D03*
Y035655D02*
D03*
D17*
X023100Y038150D02*
D03*
Y034250D02*
D03*
M02*
