M48
;Layer_Color=9474304
;FILE_FORMAT=2:4
INCH
;TYPE=PLATED
T1F00S00C0.0140
T2F00S00C0.0350
%
T01
X021400Y036800
X022200
X023000
X023750
X024550
X025600Y039500
X025650Y040300
X025590Y041100
X024680
X026850Y041250
X027650
X026630Y040330
X026730Y039410
X027550Y039300
X028650Y038560
X028850Y037600
Y036850
X029100Y035750
X028350
X027600
Y034950
X028350
X028800Y033450
X030750Y036400
Y037150
T02
X024400Y032350
X026250Y031950
X028450Y032000
X029650Y032750
X030750Y038330
X031450Y036250
M30
