%FSAX24Y24*%
%MOIN*%
G70*
G01*
G75*
%ADD10R,0.0354X0.0402*%
%ADD11R,0.0701X0.0165*%
%ADD12O,0.0701X0.0165*%
%ADD13R,0.1063X0.0669*%
%ADD14R,0.0402X0.0354*%
%ADD15R,0.0551X0.1102*%
%ADD16R,0.0551X0.0433*%
%ADD17R,0.2205X0.1181*%
%ADD18C,0.0150*%
%ADD19C,0.0500*%
%ADD20C,0.0450*%
%ADD21C,0.0350*%
%ADD22C,0.0100*%
%ADD23C,0.0250*%
%ADD24R,0.0800X0.0360*%
%ADD25R,0.0430X0.0410*%
%ADD26R,0.0600X0.0330*%
%ADD27R,0.1690X0.0060*%
%ADD28R,0.1490X0.0160*%
%ADD29R,0.0050X0.0230*%
%ADD30R,0.0090X0.0320*%
%ADD31R,0.0070X0.0240*%
%ADD32R,0.0060X0.0330*%
%ADD33R,0.0050X0.0350*%
%ADD34R,0.0100X0.0450*%
%ADD35R,0.0100X0.0300*%
%ADD36R,0.0150X0.0450*%
%ADD37R,0.1250X0.0550*%
%ADD38R,0.2250X0.0650*%
%ADD39R,0.1450X0.1700*%
%ADD40R,0.1750X0.1150*%
%ADD41R,0.1690X0.0370*%
%ADD42R,0.0580X0.0310*%
%ADD43R,0.0450X0.0290*%
%ADD44R,0.0320X0.0160*%
%ADD45R,0.1330X0.0770*%
%ADD46R,0.0720X0.0590*%
%ADD47R,0.0750X0.0510*%
%ADD48R,0.0240X0.0210*%
%ADD49R,0.0350X0.0300*%
%ADD50R,0.0420X0.0980*%
%ADD51R,0.1400X0.3700*%
%ADD52R,0.1000X0.0850*%
%ADD53R,0.1600X0.0550*%
%ADD54R,0.1350X0.1100*%
%ADD55R,0.2100X0.0900*%
%ADD56R,0.1250X0.1850*%
%ADD57R,0.1700X0.0800*%
%ADD58R,0.1050X0.1550*%
%ADD59R,0.1700X0.1250*%
%ADD60R,0.1450X0.0550*%
%ADD61R,0.1450X0.2650*%
%ADD62R,0.4000X0.0500*%
%ADD63R,0.4000X0.1498*%
%ADD64R,0.4000X0.1050*%
%ADD65R,0.1200X0.0950*%
%ADD66R,0.0350X0.2500*%
%ADD67R,0.1710X0.2600*%
%ADD68R,0.1150X0.1000*%
%ADD69R,0.1300X0.2600*%
%ADD70R,0.0800X0.1700*%
%ADD71R,0.4000X0.1200*%
%ADD72R,0.3250X0.0900*%
%ADD73R,0.1300X0.0150*%
%ADD74R,0.0400X0.0250*%
%ADD75R,0.1500X0.2500*%
%ADD76C,0.0750*%
%ADD77C,0.0290*%
%ADD78C,0.0079*%
%ADD79C,0.0098*%
%ADD80C,0.0070*%
%ADD81R,0.0950X0.1700*%
%ADD82R,0.0414X0.0462*%
%ADD83R,0.0740X0.0205*%
%ADD84O,0.0740X0.0205*%
%ADD85R,0.1123X0.0729*%
%ADD86R,0.0462X0.0414*%
%ADD87R,0.0611X0.1162*%
%ADD88R,0.0611X0.0493*%
%ADD89R,0.2265X0.1241*%
%ADD90C,0.0810*%
%ADD91C,0.0350*%
%ADD92C,0.0060*%
%ADD93C,0.0039*%
%ADD94C,0.0118*%
%ADD95C,0.0050*%
%ADD96C,0.0067*%
%ADD97C,0.0160*%
%ADD98C,0.0080*%
D95*
X031275Y036250D02*
X031625D01*
X031450Y036075D02*
Y036425D01*
X028275Y032000D02*
X028625D01*
X028450Y031825D02*
Y032175D01*
X029475Y032750D02*
X029825D01*
X029650Y032575D02*
Y032925D01*
X030575Y038330D02*
X030925D01*
X030750Y038155D02*
Y038505D01*
X026075Y031950D02*
X026425D01*
X026250Y031775D02*
Y032125D01*
X024225Y032350D02*
X024575D01*
X024400Y032175D02*
Y032525D01*
X030680Y036400D02*
X030820D01*
X030750Y036330D02*
Y036470D01*
X028730Y033450D02*
X028870D01*
X028800Y033380D02*
Y033520D01*
X028280Y034950D02*
X028420D01*
X028350Y034880D02*
Y035020D01*
X027530Y034950D02*
X027670D01*
X027600Y034880D02*
Y035020D01*
X028780Y037600D02*
X028920D01*
X028850Y037530D02*
Y037670D01*
X028780Y036850D02*
X028920D01*
X028850Y036780D02*
Y036920D01*
X026660Y039410D02*
X026800D01*
X026730Y039340D02*
Y039480D01*
X027480Y039300D02*
X027620D01*
X027550Y039230D02*
Y039370D01*
X024610Y041100D02*
X024750D01*
X024680Y041030D02*
Y041170D01*
X024480Y036800D02*
X024620D01*
X024550Y036730D02*
Y036870D01*
X023680Y036800D02*
X023820D01*
X023750Y036730D02*
Y036870D01*
X022930Y036800D02*
X023070D01*
X023000Y036730D02*
Y036870D01*
X022130Y036800D02*
X022270D01*
X022200Y036730D02*
Y036870D01*
X028580Y038560D02*
X028720D01*
X028650Y038490D02*
Y038630D01*
X030680Y037150D02*
X030820D01*
X030750Y037080D02*
Y037220D01*
X028280Y035750D02*
X028420D01*
X028350Y035680D02*
Y035820D01*
X029030Y035750D02*
X029170D01*
X029100Y035680D02*
Y035820D01*
X027530Y035750D02*
X027670D01*
X027600Y035680D02*
Y035820D01*
X021330Y036800D02*
X021470D01*
X021400Y036730D02*
Y036870D01*
X027580Y041250D02*
X027720D01*
X027650Y041180D02*
Y041320D01*
X026560Y040330D02*
X026700D01*
X026630Y040260D02*
Y040400D01*
X026780Y041250D02*
X026920D01*
X026850Y041180D02*
Y041320D01*
X025530Y039500D02*
X025670D01*
X025600Y039430D02*
Y039570D01*
X025580Y040300D02*
X025720D01*
X025650Y040230D02*
Y040370D01*
X025520Y041100D02*
X025660D01*
X025590Y041030D02*
Y041170D01*
M02*
