%FSAX24Y24*%
%MOIN*%
G70*
G01*
G75*
G04 Layer_Color=2752767*
%ADD10R,0.0354X0.0402*%
%ADD11R,0.0701X0.0165*%
%ADD12O,0.0701X0.0165*%
%ADD13R,0.1063X0.0669*%
%ADD14R,0.0402X0.0354*%
%ADD15R,0.0551X0.1102*%
%ADD16R,0.0551X0.0433*%
%ADD17R,0.2205X0.1181*%
%ADD18C,0.0150*%
%ADD19C,0.0500*%
%ADD20C,0.0450*%
%ADD21C,0.0350*%
%ADD22C,0.0100*%
%ADD23C,0.0250*%
%ADD24R,0.0800X0.0360*%
%ADD25R,0.0430X0.0410*%
%ADD26R,0.0600X0.0330*%
%ADD27R,0.1690X0.0060*%
%ADD28R,0.1490X0.0160*%
%ADD29R,0.0050X0.0230*%
%ADD30R,0.0090X0.0320*%
%ADD31R,0.0070X0.0240*%
%ADD32R,0.0060X0.0330*%
%ADD33R,0.0050X0.0350*%
%ADD34R,0.0100X0.0450*%
%ADD35R,0.0100X0.0300*%
%ADD36R,0.0150X0.0450*%
%ADD37R,0.1250X0.0550*%
%ADD38R,0.2250X0.0650*%
%ADD39R,0.1450X0.1700*%
%ADD40R,0.1750X0.1150*%
%ADD41R,0.1690X0.0370*%
%ADD42R,0.0580X0.0310*%
%ADD43R,0.0450X0.0290*%
%ADD44R,0.0320X0.0160*%
%ADD45R,0.1330X0.0770*%
%ADD46R,0.0720X0.0590*%
%ADD47R,0.0750X0.0510*%
%ADD48R,0.0240X0.0210*%
%ADD49R,0.0350X0.0300*%
%ADD50R,0.0420X0.0980*%
%ADD51R,0.1400X0.3700*%
%ADD52R,0.1000X0.0850*%
%ADD53R,0.1600X0.0550*%
%ADD54R,0.1350X0.1100*%
%ADD55R,0.2100X0.0900*%
%ADD56R,0.1250X0.1850*%
%ADD57R,0.1700X0.0800*%
%ADD58R,0.1050X0.1550*%
%ADD59R,0.1700X0.1250*%
%ADD60R,0.1450X0.0550*%
%ADD61R,0.1450X0.2650*%
%ADD62R,0.4000X0.0500*%
%ADD63R,0.4000X0.1498*%
%ADD64R,0.4000X0.1050*%
%ADD65R,0.1200X0.0950*%
%ADD66R,0.0350X0.2500*%
%ADD67R,0.1710X0.2600*%
%ADD68R,0.1150X0.1000*%
%ADD69R,0.1300X0.2600*%
%ADD70R,0.0800X0.1700*%
%ADD71R,0.4000X0.1200*%
%ADD72R,0.3250X0.0900*%
%ADD73R,0.1300X0.0150*%
%ADD74R,0.0400X0.0250*%
%ADD75R,0.1500X0.2500*%
%ADD76C,0.0750*%
%ADD77C,0.0290*%
%ADD78C,0.0079*%
%ADD79C,0.0098*%
%ADD80C,0.0070*%
%ADD81R,0.0950X0.1700*%
%ADD82R,0.0414X0.0462*%
%ADD83R,0.0740X0.0205*%
%ADD84O,0.0740X0.0205*%
%ADD85R,0.1123X0.0729*%
%ADD86R,0.0462X0.0414*%
%ADD87R,0.0611X0.1162*%
%ADD88R,0.0611X0.0493*%
%ADD89R,0.2265X0.1241*%
%ADD90C,0.0810*%
%ADD91C,0.0350*%
%ADD92C,0.0060*%
%ADD93C,0.0039*%
%ADD94C,0.0118*%
%ADD95C,0.0050*%
%ADD96C,0.0067*%
%ADD97C,0.0160*%
%ADD98C,0.0080*%
D22*
X013205Y020250D02*
Y019650D01*
X013505D01*
X013605Y019750D01*
Y020150D01*
X013505Y020250D01*
X013205D01*
X013805Y020050D02*
Y019650D01*
Y019850D01*
X013905Y019950D01*
X014004Y020050D01*
X014104D01*
X014404Y019650D02*
X014604D01*
X014504D01*
Y020050D01*
X014404D01*
X014904Y019650D02*
X015104D01*
X015004D01*
Y020250D01*
X014904D01*
X015404Y019650D02*
X015604D01*
X015504D01*
Y020250D01*
X015404D01*
X016504D02*
Y019650D01*
X016804D01*
X016904Y019750D01*
Y020150D01*
X016804Y020250D01*
X016504D01*
X017103Y020050D02*
Y019650D01*
Y019850D01*
X017203Y019950D01*
X017303Y020050D01*
X017403D01*
X017803D02*
X018003D01*
X018103Y019950D01*
Y019650D01*
X017803D01*
X017703Y019750D01*
X017803Y019850D01*
X018103D01*
X018303Y020050D02*
Y019750D01*
X018403Y019650D01*
X018503Y019750D01*
X018603Y019650D01*
X018703Y019750D01*
Y020050D01*
X018903Y019650D02*
X019103D01*
X019003D01*
Y020050D01*
X018903D01*
X019403Y019650D02*
Y020050D01*
X019703D01*
X019803Y019950D01*
Y019650D01*
X020202Y019450D02*
X020302D01*
X020402Y019550D01*
Y020050D01*
X020102D01*
X020003Y019950D01*
Y019750D01*
X020102Y019650D01*
X020402D01*
X020602D02*
Y019750D01*
X020702D01*
Y019650D01*
X020602D01*
X018643Y023050D02*
X018243D01*
X018643Y023450D01*
Y023550D01*
X018543Y023650D01*
X018343D01*
X018243Y023550D01*
X019243Y023650D02*
X018843D01*
Y023350D01*
X019043Y023450D01*
X019143D01*
X019243Y023350D01*
Y023150D01*
X019143Y023050D01*
X018943D01*
X018843Y023150D01*
X025202Y023050D02*
X025402D01*
X025302D01*
Y023650D01*
X025202Y023550D01*
X026001Y023050D02*
Y023650D01*
X025701Y023350D01*
X026101D01*
X026301Y023050D02*
Y023450D01*
X026401D01*
X026501Y023350D01*
Y023050D01*
Y023350D01*
X026601Y023450D01*
X026701Y023350D01*
Y023050D01*
X026901D02*
X027101D01*
X027001D01*
Y023450D01*
X026901D01*
X027401Y023050D02*
X027601D01*
X027501D01*
Y023650D01*
X027401D01*
X028700Y023050D02*
X028501Y023250D01*
Y023450D01*
X028700Y023650D01*
X029000Y023550D02*
X029100Y023650D01*
X029300D01*
X029400Y023550D01*
Y023150D01*
X029300Y023050D01*
X029100D01*
X029000Y023150D01*
Y023550D01*
X029600Y023050D02*
Y023150D01*
X029700D01*
Y023050D01*
X029600D01*
X030100Y023550D02*
X030200Y023650D01*
X030400D01*
X030500Y023550D01*
Y023450D01*
X030400Y023350D01*
X030300D01*
X030400D01*
X030500Y023250D01*
Y023150D01*
X030400Y023050D01*
X030200D01*
X030100Y023150D01*
X031100Y023650D02*
X030700D01*
Y023350D01*
X030900Y023450D01*
X031000D01*
X031100Y023350D01*
Y023150D01*
X031000Y023050D01*
X030800D01*
X030700Y023150D01*
X031700Y023650D02*
X031300D01*
Y023350D01*
X031500Y023450D01*
X031600D01*
X031700Y023350D01*
Y023150D01*
X031600Y023050D01*
X031400D01*
X031300Y023150D01*
X032299Y023650D02*
X032099Y023550D01*
X031899Y023350D01*
Y023150D01*
X031999Y023050D01*
X032199D01*
X032299Y023150D01*
Y023250D01*
X032199Y023350D01*
X031899D01*
X032499Y023050D02*
Y023450D01*
X032599D01*
X032699Y023350D01*
Y023050D01*
Y023350D01*
X032799Y023450D01*
X032899Y023350D01*
Y023050D01*
X033099D02*
Y023450D01*
X033199D01*
X033299Y023350D01*
Y023050D01*
Y023350D01*
X033399Y023450D01*
X033499Y023350D01*
Y023050D01*
X033699D02*
X033899Y023250D01*
Y023450D01*
X033699Y023650D01*
X038638Y023050D02*
Y023650D01*
X038938D01*
X039038Y023550D01*
Y023350D01*
X038938Y023250D01*
X038638D01*
X039237Y023650D02*
X039637D01*
X039437D01*
Y023050D01*
X039837Y023650D02*
Y023050D01*
Y023350D01*
X040237D01*
Y023650D01*
Y023050D01*
X043676D02*
Y023650D01*
X043976D01*
X044076Y023550D01*
Y023350D01*
X043976Y023250D01*
X043676D01*
X043876D02*
X044076Y023050D01*
X044376D02*
X044576D01*
X044676Y023150D01*
Y023350D01*
X044576Y023450D01*
X044376D01*
X044276Y023350D01*
Y023150D01*
X044376Y023050D01*
X044876Y023450D02*
Y023150D01*
X044976Y023050D01*
X045276D01*
Y023450D01*
X045476Y023050D02*
Y023450D01*
X045776D01*
X045876Y023350D01*
Y023050D01*
X046476Y023650D02*
Y023050D01*
X046176D01*
X046076Y023150D01*
Y023350D01*
X046176Y023450D01*
X046476D01*
X018643Y022450D02*
X018443Y022350D01*
X018243Y022150D01*
Y021950D01*
X018343Y021850D01*
X018543D01*
X018643Y021950D01*
Y022050D01*
X018543Y022150D01*
X018243D01*
X025202Y022350D02*
X025302Y022450D01*
X025502D01*
X025601Y022350D01*
Y022250D01*
X025502Y022150D01*
X025402D01*
X025502D01*
X025601Y022050D01*
Y021950D01*
X025502Y021850D01*
X025302D01*
X025202Y021950D01*
X026201Y022450D02*
X025801D01*
Y022150D01*
X026001Y022250D01*
X026101D01*
X026201Y022150D01*
Y021950D01*
X026101Y021850D01*
X025901D01*
X025801Y021950D01*
X026401Y021850D02*
Y022250D01*
X026501D01*
X026601Y022150D01*
Y021850D01*
Y022150D01*
X026701Y022250D01*
X026801Y022150D01*
Y021850D01*
X027001D02*
X027201D01*
X027101D01*
Y022250D01*
X027001D01*
X027501Y021850D02*
X027701D01*
X027601D01*
Y022450D01*
X027501D01*
X028800Y021850D02*
X028601Y022050D01*
Y022250D01*
X028800Y022450D01*
X029100Y022350D02*
X029200Y022450D01*
X029400D01*
X029500Y022350D01*
Y021950D01*
X029400Y021850D01*
X029200D01*
X029100Y021950D01*
Y022350D01*
X029700Y021850D02*
Y021950D01*
X029800D01*
Y021850D01*
X029700D01*
X030200Y022350D02*
X030300Y022450D01*
X030500D01*
X030600Y022350D01*
Y022250D01*
X030500Y022150D01*
X030600Y022050D01*
Y021950D01*
X030500Y021850D01*
X030300D01*
X030200Y021950D01*
Y022050D01*
X030300Y022150D01*
X030200Y022250D01*
Y022350D01*
X030300Y022150D02*
X030500D01*
X030800Y022350D02*
X030900Y022450D01*
X031100D01*
X031200Y022350D01*
Y022250D01*
X031100Y022150D01*
X031200Y022050D01*
Y021950D01*
X031100Y021850D01*
X030900D01*
X030800Y021950D01*
Y022050D01*
X030900Y022150D01*
X030800Y022250D01*
Y022350D01*
X030900Y022150D02*
X031100D01*
X031400Y021950D02*
X031500Y021850D01*
X031700D01*
X031799Y021950D01*
Y022350D01*
X031700Y022450D01*
X031500D01*
X031400Y022350D01*
Y022250D01*
X031500Y022150D01*
X031799D01*
X031999Y021850D02*
Y022250D01*
X032099D01*
X032199Y022150D01*
Y021850D01*
Y022150D01*
X032299Y022250D01*
X032399Y022150D01*
Y021850D01*
X032599D02*
Y022250D01*
X032699D01*
X032799Y022150D01*
Y021850D01*
Y022150D01*
X032899Y022250D01*
X032999Y022150D01*
Y021850D01*
X033199D02*
X033399Y022050D01*
Y022250D01*
X033199Y022450D01*
X038638Y021850D02*
Y022450D01*
X038938D01*
X039038Y022350D01*
Y022150D01*
X038938Y022050D01*
X038638D01*
X039237Y022450D02*
X039637D01*
X039437D01*
Y021850D01*
X039837Y022450D02*
Y021850D01*
Y022150D01*
X040237D01*
Y022450D01*
Y021850D01*
X043676D02*
Y022450D01*
X043976D01*
X044076Y022350D01*
Y022150D01*
X043976Y022050D01*
X043676D01*
X043876D02*
X044076Y021850D01*
X044376D02*
X044576D01*
X044676Y021950D01*
Y022150D01*
X044576Y022250D01*
X044376D01*
X044276Y022150D01*
Y021950D01*
X044376Y021850D01*
X044876Y022250D02*
Y021950D01*
X044976Y021850D01*
X045276D01*
Y022250D01*
X045476Y021850D02*
Y022250D01*
X045776D01*
X045876Y022150D01*
Y021850D01*
X046476Y022450D02*
Y021850D01*
X046176D01*
X046076Y021950D01*
Y022150D01*
X046176Y022250D01*
X046476D01*
X018243Y021150D02*
X018343Y021250D01*
X018543D01*
X018643Y021150D01*
Y021050D01*
X018543Y020950D01*
X018443D01*
X018543D01*
X018643Y020850D01*
Y020750D01*
X018543Y020650D01*
X018343D01*
X018243Y020750D01*
X018843Y020650D02*
X019043D01*
X018943D01*
Y021250D01*
X018843Y021150D01*
X020123Y021250D02*
X020523D01*
X020323D01*
Y020650D01*
X020823D02*
X021023D01*
X021123Y020750D01*
Y020950D01*
X021023Y021050D01*
X020823D01*
X020723Y020950D01*
Y020750D01*
X020823Y020650D01*
X021423Y021150D02*
Y021050D01*
X021323D01*
X021523D01*
X021423D01*
Y020750D01*
X021523Y020650D01*
X021923Y021050D02*
X022123D01*
X022223Y020950D01*
Y020650D01*
X021923D01*
X021823Y020750D01*
X021923Y020850D01*
X022223D01*
X022422Y020650D02*
X022622D01*
X022522D01*
Y021250D01*
X022422D01*
D95*
X031250Y036050D02*
Y036450D01*
X031650D01*
Y036050D01*
X031250D01*
X028250Y031800D02*
Y032200D01*
X028650D01*
Y031800D01*
X028250D01*
X029450Y032550D02*
Y032950D01*
X029850D01*
Y032550D01*
X029450D01*
X030550Y038130D02*
Y038530D01*
X030950D01*
Y038130D01*
X030550D01*
X026050Y031750D02*
Y032150D01*
X026450D01*
Y031750D01*
X026050D01*
X024200Y032150D02*
Y032550D01*
X024600D01*
Y032150D01*
X024200D01*
X013205Y021910D02*
Y022390D01*
X013685D01*
Y021910D01*
X013205D01*
D96*
X030950Y036400D02*
G03*
X030950Y036400I-000200J000000D01*
G01*
X029000Y033450D02*
G03*
X029000Y033450I-000200J000000D01*
G01*
X028550Y034950D02*
G03*
X028550Y034950I-000200J000000D01*
G01*
X027800D02*
G03*
X027800Y034950I-000200J000000D01*
G01*
X029050Y037600D02*
G03*
X029050Y037600I-000200J000000D01*
G01*
Y036850D02*
G03*
X029050Y036850I-000200J000000D01*
G01*
X026930Y039410D02*
G03*
X026930Y039410I-000200J000000D01*
G01*
X027750Y039300D02*
G03*
X027750Y039300I-000200J000000D01*
G01*
X024880Y041100D02*
G03*
X024880Y041100I-000200J000000D01*
G01*
X024750Y036800D02*
G03*
X024750Y036800I-000200J000000D01*
G01*
X023950D02*
G03*
X023950Y036800I-000200J000000D01*
G01*
X023200D02*
G03*
X023200Y036800I-000200J000000D01*
G01*
X022400D02*
G03*
X022400Y036800I-000200J000000D01*
G01*
X028850Y038560D02*
G03*
X028850Y038560I-000200J000000D01*
G01*
X030950Y037150D02*
G03*
X030950Y037150I-000200J000000D01*
G01*
X028550Y035750D02*
G03*
X028550Y035750I-000200J000000D01*
G01*
X029300D02*
G03*
X029300Y035750I-000200J000000D01*
G01*
X027800D02*
G03*
X027800Y035750I-000200J000000D01*
G01*
X021600Y036800D02*
G03*
X021600Y036800I-000200J000000D01*
G01*
X027850Y041250D02*
G03*
X027850Y041250I-000200J000000D01*
G01*
X026830Y040330D02*
G03*
X026830Y040330I-000200J000000D01*
G01*
X027050Y041250D02*
G03*
X027050Y041250I-000200J000000D01*
G01*
X025800Y039500D02*
G03*
X025800Y039500I-000200J000000D01*
G01*
X025850Y040300D02*
G03*
X025850Y040300I-000200J000000D01*
G01*
X025790Y041100D02*
G03*
X025790Y041100I-000200J000000D01*
G01*
D97*
X013685Y025090D02*
X013565Y025210D01*
X013325D01*
X013205Y025090D01*
Y024970D01*
X013325Y024850D01*
X013565D01*
X013685Y024730D01*
Y024610D01*
X013565Y024490D01*
X013325D01*
X013205Y024610D01*
X013924Y024970D02*
Y024610D01*
X014044Y024490D01*
X014404D01*
Y024370D01*
X014284Y024250D01*
X014164D01*
X014404Y024490D02*
Y024970D01*
X014644Y024490D02*
Y024970D01*
X014764D01*
X014884Y024850D01*
Y024490D01*
Y024850D01*
X015004Y024970D01*
X015124Y024850D01*
Y024490D01*
X015364Y025210D02*
Y024490D01*
X015724D01*
X015844Y024610D01*
Y024730D01*
Y024850D01*
X015724Y024970D01*
X015364D01*
X016204Y024490D02*
X016444D01*
X016564Y024610D01*
Y024850D01*
X016444Y024970D01*
X016204D01*
X016084Y024850D01*
Y024610D01*
X016204Y024490D01*
X016804D02*
X017043D01*
X016924D01*
Y025210D01*
X016804D01*
X018243D02*
Y024490D01*
Y024850D01*
X018723D01*
Y025210D01*
Y024490D01*
X018963D02*
X019203D01*
X019083D01*
Y024970D01*
X018963D01*
X019683Y025090D02*
Y024970D01*
X019563D01*
X019803D01*
X019683D01*
Y024610D01*
X019803Y024490D01*
X021362Y025090D02*
X021243Y025210D01*
X021003D01*
X020883Y025090D01*
Y024610D01*
X021003Y024490D01*
X021243D01*
X021362Y024610D01*
X021722Y024490D02*
X021962D01*
X022082Y024610D01*
Y024850D01*
X021962Y024970D01*
X021722D01*
X021602Y024850D01*
Y024610D01*
X021722Y024490D01*
X022322Y024970D02*
Y024610D01*
X022442Y024490D01*
X022802D01*
Y024970D01*
X023042Y024490D02*
Y024970D01*
X023402D01*
X023522Y024850D01*
Y024490D01*
X023882Y025090D02*
Y024970D01*
X023762D01*
X024002D01*
X023882D01*
Y024610D01*
X024002Y024490D01*
X025681Y025210D02*
X025202D01*
Y024850D01*
X025442D01*
X025202D01*
Y024490D01*
X025921D02*
X026161D01*
X026041D01*
Y024970D01*
X025921D01*
X026521Y024490D02*
Y024970D01*
X026881D01*
X027001Y024850D01*
Y024490D01*
X027241D02*
X027481D01*
X027361D01*
Y024970D01*
X027241D01*
X027841Y024490D02*
X028201D01*
X028321Y024610D01*
X028201Y024730D01*
X027961D01*
X027841Y024850D01*
X027961Y024970D01*
X028321D01*
X028561Y025210D02*
Y024490D01*
Y024850D01*
X028680Y024970D01*
X028920D01*
X029040Y024850D01*
Y024490D01*
X029640D02*
X029400D01*
X029280Y024610D01*
Y024850D01*
X029400Y024970D01*
X029640D01*
X029760Y024850D01*
Y024730D01*
X029280D01*
X030480Y025210D02*
Y024490D01*
X030120D01*
X030000Y024610D01*
Y024850D01*
X030120Y024970D01*
X030480D01*
X031440Y025210D02*
Y024490D01*
Y024850D01*
X031919D01*
Y025210D01*
Y024490D01*
X032279D02*
X032519D01*
X032639Y024610D01*
Y024850D01*
X032519Y024970D01*
X032279D01*
X032159Y024850D01*
Y024610D01*
X032279Y024490D01*
X032879D02*
X033119D01*
X032999D01*
Y025210D01*
X032879D01*
X033839Y024490D02*
X033599D01*
X033479Y024610D01*
Y024850D01*
X033599Y024970D01*
X033839D01*
X033959Y024850D01*
Y024730D01*
X033479D01*
X035398Y025090D02*
X035278Y025210D01*
X035038D01*
X034918Y025090D01*
Y024970D01*
X035038Y024850D01*
X035278D01*
X035398Y024730D01*
Y024610D01*
X035278Y024490D01*
X035038D01*
X034918Y024610D01*
X035638Y024490D02*
X035878D01*
X035758D01*
Y024970D01*
X035638D01*
X036238D02*
X036718D01*
X036238Y024490D01*
X036718D01*
X037318D02*
X037078D01*
X036958Y024610D01*
Y024850D01*
X037078Y024970D01*
X037318D01*
X037438Y024850D01*
Y024730D01*
X036958D01*
X038638Y024490D02*
Y025210D01*
X038998D01*
X039118Y025090D01*
Y024850D01*
X038998Y024730D01*
X038638D01*
X039357Y024490D02*
X039597D01*
X039477D01*
Y025210D01*
X039357D01*
X040077Y024970D02*
X040317D01*
X040437Y024850D01*
Y024490D01*
X040077D01*
X039957Y024610D01*
X040077Y024730D01*
X040437D01*
X040797Y025090D02*
Y024970D01*
X040677D01*
X040917D01*
X040797D01*
Y024610D01*
X040917Y024490D01*
X041637D02*
X041397D01*
X041277Y024610D01*
Y024850D01*
X041397Y024970D01*
X041637D01*
X041757Y024850D01*
Y024730D01*
X041277D01*
X042476Y025210D02*
Y024490D01*
X042117D01*
X041997Y024610D01*
Y024850D01*
X042117Y024970D01*
X042476D01*
X043676Y025210D02*
Y024490D01*
Y024850D01*
X044156D01*
Y025210D01*
Y024490D01*
X044516D02*
X044756D01*
X044876Y024610D01*
Y024850D01*
X044756Y024970D01*
X044516D01*
X044396Y024850D01*
Y024610D01*
X044516Y024490D01*
X045116D02*
X045356D01*
X045236D01*
Y025210D01*
X045116D01*
X046076Y024490D02*
X045836D01*
X045716Y024610D01*
Y024850D01*
X045836Y024970D01*
X046076D01*
X046196Y024850D01*
Y024730D01*
X045716D01*
X047155Y025210D02*
X047635D01*
X047395D01*
Y024490D01*
X047875Y024970D02*
Y024610D01*
X047995Y024490D01*
X048355D01*
Y024370D01*
X048235Y024250D01*
X048115D01*
X048355Y024490D02*
Y024970D01*
X048595Y024250D02*
Y024970D01*
X048955D01*
X049075Y024850D01*
Y024610D01*
X048955Y024490D01*
X048595D01*
X049674D02*
X049435D01*
X049315Y024610D01*
Y024850D01*
X049435Y024970D01*
X049674D01*
X049794Y024850D01*
Y024730D01*
X049315D01*
X012325Y025570D02*
X050994D01*
X012325Y023950D02*
X050994D01*
X012325Y025570D02*
Y020350D01*
X050994Y025570D02*
Y020350D01*
X017803Y025570D02*
Y020350D01*
X024762Y025570D02*
Y020350D01*
X038198Y025570D02*
Y020350D01*
X043236Y025570D02*
Y020350D01*
X012325Y021550D02*
X050994D01*
X012325Y020350D02*
X050994D01*
D98*
X013685Y023350D02*
G03*
X013685Y023350I-000240J000000D01*
G01*
M02*
